# xmcd CD database file
#
# Track frame offsets:
#	150
#	30829
#	52116
#	72658
#	98260
#	123369
#	150707
#	181345
#
# Disc length: 2799 seconds
#
# Revision: 1
# Processed by: cddbd v1.5.2PL0 Copyright (c) Steve Scherf et al.
# Submitted via: CDex 1.51
#
DISCID=5f0aed08
DTITLE=Billie Holiday  - [CD 10-10] - A Foggy Day
DYEAR=1900
DGENRE=Jazz
TTITLE0=Day In, Day Out  [1957]
TTITLE1=A Foggy Day  [1957]
TTITLE2=Stars Fell On Alabama  [1957]
TTITLE3=One For My Baby  (And One More For The Road)  [1957]
TTITLE4=Just One Of Those Things  [1957]
TTITLE5=I Didn't Know What Time It Was  [1957]
TTITLE6=Embraceable You  [1957]
TTITLE7=Fine And Mellow  [1957]
EXTD=
EXTT0=
EXTT1=
EXTT2=
EXTT3=
EXTT4=
EXTT5=
EXTT6=
EXTT7=
PLAYORDER=
